<svg xmlns="http://www.w3.org/2000/svg" xmlns:xlink="http://www.w3.org/1999/xlink" version="1.1" width="1000" height="1000" viewBox="0 0 1000 1000" xml:space="preserve">
<desc>Created with Fabric.js 3.5.0</desc>
<defs>
</defs>
<g transform="matrix(0.1766 0 0 0.1766 318.1913 266.2283)" id="598140">
<g style="" vector-effect="non-scaling-stroke">
		<g transform="matrix(1.0465 0 0 1.0465 -864.4731 530.5502)">
<path style="stroke: none; stroke-width: 1; stroke-dasharray: none; stroke-linecap: butt; stroke-dashoffset: 0; stroke-linejoin: miter; stroke-miterlimit: 4; is-custom-font: none; font-file-url: none; fill: rgb(37,244,238); fill-rule: nonzero; opacity: 1;" transform=" translate(-389.6872, -1418.5242)" d="M 779.38 890.55 v -88.12 a 650.81 650.81 0 0 0 -92.45 -7.94 c -299.8 -0.64 -565.22 193.64 -655.25 479.6 S 47.92 1871.34 294 2042.56 a 684.7 684.7 0 0 1 485.36 -1152 z" stroke-linecap="round"/>
</g>
		<g transform="matrix(1.0465 0 0 1.0465 1.738 34.3691)">
<path style="stroke: none; stroke-width: 1; stroke-dasharray: none; stroke-linecap: butt; stroke-dashoffset: 0; stroke-linejoin: miter; stroke-miterlimit: 4; is-custom-font: none; font-file-url: none; fill: rgb(37,244,238); fill-rule: nonzero; opacity: 1;" transform=" translate(-1217.43, -944.36)" d="M 796 1888.72 c 167.62 -0.23 305.4 -132.28 312.74 -299.74 V 94.62 h 273 A 512.17 512.17 0 0 1 1373.8 0 h -373.41 v 1492.92 c -6.21 168.31 -144.32 301.63 -312.74 301.9 a 317.76 317.76 0 0 1 -144.45 -36.11 A 313.48 313.48 0 0 0 796 1888.72 z M 1891.66 601.64 v -83.06 a 509.85 509.85 0 0 1 -282.4 -85.22 a 517.79 517.79 0 0 0 282.4 168.28 z" stroke-linecap="round"/>
</g>
		<g transform="matrix(1.0465 0 0 1.0465 -234.0135 15.4655)">
<path style="stroke: none; stroke-width: 1; stroke-dasharray: none; stroke-linecap: butt; stroke-dashoffset: 0; stroke-linejoin: miter; stroke-miterlimit: 4; is-custom-font: none; font-file-url: none; fill: rgb(254,44,85); fill-rule: nonzero; opacity: 1;" transform=" translate(-992.1474, -926.3)" d="M 1609.26 433.36 a 514.19 514.19 0 0 1 -127.84 -339.47 h -99.68 a 517.16 517.16 0 0 0 227.52 339.47 z M 686.93 1167.9 a 313.46 313.46 0 0 0 -144.46 590.81 A 312.75 312.75 0 0 1 796 1262.51 a 329.69 329.69 0 0 1 92.44 14.49 V 897.05 a 654.77 654.77 0 0 0 -92.44 -7.22 h -16.62 v 288.9 a 321.13 321.13 0 0 0 -92.45 -10.83 z" stroke-linecap="round"/>
</g>
		<g transform="matrix(1.0465 0 0 1.0465 -71.957 544.1075)">
<path style="stroke: none; stroke-width: 1; stroke-dasharray: none; stroke-linecap: butt; stroke-dashoffset: 0; stroke-linejoin: miter; stroke-miterlimit: 4; is-custom-font: none; font-file-url: none; fill: rgb(254,44,85); fill-rule: nonzero; opacity: 1;" transform=" translate(-1147, -1431.4718)" d="M 1891.66 601.64 v 288.91 a 886.23 886.23 0 0 1 -517.86 -168.29 v 759.1 c -0.8 378.78 -308.09 685.43 -686.87 685.43 A 679.65 679.65 0 0 1 294 2042.56 A 685.43 685.43 0 0 0 1481.42 1576 V 819.05 A 887.71 887.71 0 0 0 2000 985.17 v -372 a 529.59 529.59 0 0 1 -108.34 -11.53 z" stroke-linecap="round"/>
</g>
		<g transform="matrix(1.0465 0 0 1.0465 -226.8767 229.061)">
<path style="stroke: none; stroke-width: 1; stroke-dasharray: none; stroke-linecap: butt; stroke-dashoffset: 0; stroke-linejoin: miter; stroke-miterlimit: 4; is-custom-font: none; font-file-url: none; fill: rgb(0,0,0); fill-rule: nonzero; opacity: 1;" transform=" translate(-998.9567, -1130.4046)" d="M 1373.8 1481.36 v -759.1 a 886.11 886.11 0 0 0 518.58 166.12 v -288.9 a 517.87 517.87 0 0 1 -283.12 -166.12 a 517.16 517.16 0 0 1 -227.52 -339.47 h -273 V 1589 a 313.46 313.46 0 0 1 -567 171.17 a 313.46 313.46 0 0 1 144.46 -590.83 a 321.35 321.35 0 0 1 92.45 14.45 V 894.88 A 684.71 684.71 0 0 0 293.29 2050.5 a 679.65 679.65 0 0 0 393.64 116.29 c 378.78 0 686.07 -306.65 686.87 -685.43 z" stroke-linecap="round"/>
</g>
</g>
</g>
<g transform="matrix(3.444 0 0 3.444 745.6361 308.8758)" id="211649">
<g style="" vector-effect="non-scaling-stroke">
		<g transform="matrix(1 0 0 1 1.45 -0.65)" id="Layer_1">
<rect style="stroke: none; stroke-width: 1; stroke-dasharray: none; stroke-linecap: butt; stroke-dashoffset: 0; stroke-linejoin: miter; stroke-miterlimit: 4; is-custom-font: none; font-file-url: none; fill: rgb(255,255,255); fill-rule: evenodd; opacity: 1;" x="-19.2" y="-23.7" rx="0" ry="0" width="38.4" height="47.4"/>
</g>
		<g transform="matrix(1 0 0 1 0.0597 -0.05)" id="Layer_1">
<path style="stroke: none; stroke-width: 1; stroke-dasharray: none; stroke-linecap: butt; stroke-dashoffset: 0; stroke-linejoin: miter; stroke-miterlimit: 4; is-custom-font: none; font-file-url: none; fill: rgb(244,4,7); fill-rule: evenodd; opacity: 1;" transform=" translate(-49.5097, -61.4)" d="M 63.5 2.7 c 11.6 -6 25.9 -1.6 32 9.8 s 1.7 25.7 -9.9 31.7 l -9.5 5 c 8.2 0.3 16 4.8 20.1 12.5 c 6.1 11.5 1.7 25.7 -9.9 31.7 l -50.8 26.7 c -11.6 6 -25.9 1.6 -32 -9.8 s -1.6 -25.7 9.9 -31.7 l 9.5 -5 c -8.2 -0.3 -16 -4.8 -20.1 -12.5 c -6.1 -11.5 -1.6 -25.7 9.9 -31.7 C 12.7 29.4 63.5 2.7 63.5 2.7 z M 36.1 42.5 l 30.8 19 L 36.1 80.4 C 36.1 80.4 36.1 42.5 36.1 42.5 z" stroke-linecap="round"/>
</g>
</g>
</g>
<g transform="matrix(0.3335 0 0 -0.3335 500.011 873.375)" id="638983">
<path style="stroke: none; stroke-width: 1; stroke-dasharray: none; stroke-linecap: butt; stroke-dashoffset: 0; stroke-linejoin: miter; stroke-miterlimit: 4; is-custom-font: none; font-file-url: none; fill: rgb(230,0,16); fill-rule: nonzero; opacity: 1;" vector-effect="non-scaling-stroke" transform=" translate(-2145, -377.5)" d="M 1657 673 c -4 -3 -7 -138 -7 -300 c 0 -280 1 -293 19 -293 c 10 0 113 56 227 124 l 209 124 l 5 -121 c 4 -101 8 -122 21 -125 c 9 -2 110 54 225 123 l 209 125 l 5 -127 l 5 -128 l 30 0 l 30 0 l 3 303 l 2 302 l -35 0 l -35 0 l 0 -126 c 0 -69 -4 -124 -9 -122 c -4 2 -101 59 -214 127 c -121 72 -213 121 -221 118 c -12 -5 -16 -31 -18 -127 l -3 -120 l -210 125 c -115 68 -215 125 -221 125 c -6 0 -14 -3 -17 -7 z" stroke-linecap="round"/>
</g>
</svg>