<svg version="1.0" xmlns="http://www.w3.org/2000/svg" width="400.000000pt" height="400.000000pt"
    viewBox="0 0 400.000000 400.000000" preserveAspectRatio="xMidYMid meet">
    <g transform="translate(0.000000,400.000000) scale(0.100000,-0.100000)" fill="#e60010" stroke="none">
        <path
            d="M 1657 673 c -4 -3 -7 -138 -7 -300 c 0 -280 1 -293 19 -293 c 10 0 113 56 227 124 l 209 124 l 5 -121 c 4 -101 8 -122 21 -125 c 9 -2 110 54 225 123 l 209 125 l 5 -127 l 5 -128 l 30 0 l 30 0 l 3 303 l 2 302 l -35 0 l -35 0 l 0 -126 c 0 -69 -4 -124 -9 -122 c -4 2 -101 59 -214 127 c -121 72 -213 121 -221 118 c -12 -5 -16 -31 -18 -127 l -3 -120 l -210 125 c -115 68 -215 125 -221 125 c -6 0 -14 -3 -17 -7 z" />
    </g>
</svg>